<svg xmlns="http://www.w3.org/2000/svg" xmlns:xlink="http://www.w3.org/1999/xlink" width="132.86" height="36.676" viewBox="0 0 132.86 36.676">
  <defs>
    <clipPath id="clip-path">
      <rect id="Rectangle_5045" data-name="Rectangle 5045" width="26.138" height="11.353" fill="none"/>
    </clipPath>
  </defs>
  <g id="Group_6110" data-name="Group 6110" transform="translate(-257.233 -33.929)">
    <g id="Group_34" data-name="Group 34" transform="translate(516.631 -1270.135)">
      <path id="Complete_Cleaning_And_Disinfection_For_Your_Home" data-name="Complete Cleaning And Disinfection For Your Home" d="M41.63,13.01a3.445,3.445,0,0,0,3.45-3.45,3.473,3.473,0,1,0-3.45,3.45ZM45.08,39V14.16H38.134V39ZM65.964,14.16H48.9v6.624h6.44L46.966,39H65.458V32.33H57.546Zm19.55,0H68.448v6.624h6.44L66.516,39H85.008V32.33H77.1Zm5.612-1.15a3.445,3.445,0,0,0,3.45-3.45,3.473,3.473,0,1,0-3.45,3.45ZM94.576,39V14.16H87.63V39ZM108.33,13.838c-7.59,0-11.132,4.6-11.132,12.742,0,8.1,3.5,12.742,11.132,12.742,7.59,0,11.132-4.646,11.132-12.742C119.462,18.438,115.92,13.838,108.33,13.838Zm0,19.412c-2.99,0-4.646-2.208-4.646-6.67,0-4.508,1.656-6.624,4.646-6.67,2.99,0,4.6,2.162,4.6,6.67C112.93,31.042,111.32,33.2,108.33,33.25Z" transform="translate(-246 1298)" fill="#00c194"/>
    </g>
    <g id="Group_6097" data-name="Group 6097" transform="translate(19604.188 7063.758)">
      <g id="Group_6106" data-name="Group 6106" transform="translate(-19346.955 -7029.83)">
        <g id="Group_6109" data-name="Group 6109">
          <path id="Path_20771" data-name="Path 20771" d="M2486.962,1774.618c-1,2.166-3.694,3.346-7.437,3.576,2.09-.5,3.589-1.466,4.255-2.913,1.247-2.7-.658-6.512-4.655-10.316a48.224,48.224,0,0,0-12.157-8.1c-.3-.144-.6-.287-.909-.428s-.614-.28-.919-.413q-1.481-.65-2.941-1.2h4.122a3.117,3.117,0,0,0,1.931-.533c1.873.9,3.649,1.86,5.311,2.86.092.055.18.11.27.162,1.149.7,2.244,1.421,3.272,2.152,7.5,5.324,11.641,11.282,9.859,15.156" transform="translate(-2438.24 -1741.519)" fill="#616d9d"/>
          <g id="Group_6108" data-name="Group 6108">
            <g id="Group_6107" data-name="Group 6107">
              <path id="Path_20770" data-name="Path 20770" d="M985.963,1410.823a43.762,43.762,0,0,1,8.55,1.614v3.043a39.026,39.026,0,0,0-8.55-1.557c-4.791-.266-8.341.81-9.48,3.278-.666,1.447-.423,3.216.556,5.128-2.26-2.994-3.114-5.81-2.119-7.975,1.293-2.811,5.452-3.965,11.042-3.532" transform="translate(-974.51 -1403.499)" fill="#616d9d"/>
              <path id="Path_20772" data-name="Path 20772" d="M1715.121,984.842a10.461,10.461,0,0,0-.455-2.641,8.586,8.586,0,0,0-1.567-2.863,7.01,7.01,0,0,0-3.273-2.152c-.125-.042-.253-.078-.384-.115l.115-.047a6.7,6.7,0,0,0,2.926-2.445,7.973,7.973,0,0,0,1.233-4.632q0-4.322-2.184-6.439t-6.841-2.113h-19v11.329h.044l-.044.008V984.21a41.423,41.423,0,0,0,9.861,6.225c5.35,2.463,10.582,3.715,14.511,3.7a7.616,7.616,0,0,0,1.766-.786,5.987,5.987,0,0,0,1.131-.88q2.183-2.186,2.184-6.841c0-.266-.008-.528-.021-.781m-20.882-16.8h8.077a2.52,2.52,0,0,1,2.85,2.85v.951a2.724,2.724,0,0,1-.919,2.317,3.115,3.115,0,0,1-1.93.533h-8.077Zm0,13.3h9.5a2.52,2.52,0,0,1,2.853,2.85v.951a2.52,2.52,0,0,1-2.853,2.85h-9.5Z" transform="translate(-1674.236 -961.395)" fill="#00c194"/>
              <path id="Path_20773" data-name="Path 20773" d="M1161.869,1666.56c.648-1.408,2.285-2.243,4.565-2.528-4.159-.153-7.211.821-8.206,2.981-1.371,2.978,1.51,7.464,6.923,11.663a63.852,63.852,0,0,0,20.644,9.505c6.71,1.383,11.991.656,13.362-2.322.994-2.16-.25-5.112-3.07-8.172,1.266,1.918,1.7,3.7,1.047,5.112-1.8,3.9-11.146,3.428-20.885-1.056s-16.177-11.281-14.381-15.181" transform="translate(-1154.938 -1652.7)" fill="#00c194"/>
            </g>
          </g>
        </g>
        <g id="Group_6104" data-name="Group 6104" transform="translate(11.452 21.384)" opacity="0.3">
          <g id="Group_6103" data-name="Group 6103">
            <g id="Group_6102" data-name="Group 6102" clip-path="url(#clip-path)">
              <path id="Path_20774" data-name="Path 20774" d="M1711.828,2299.828a7.626,7.626,0,0,1-1.766.786c-3.929.018-9.161-1.233-14.511-3.7a41.4,41.4,0,0,1-9.861-6.225v-1.431a40.128,40.128,0,0,0,10.611,6.906c5.825,2.683,11.512,3.929,15.527,3.66" transform="translate(-1685.69 -2289.262)"/>
            </g>
          </g>
        </g>
      </g>
    </g>
  </g>
</svg>
